HIERARCHY
ROOT mixamorig:Hips
{
	OFFSET -0.000008 104.274872 1.554316
	CHANNELS 6 Xposition Yposition Zposition Xrotation Yrotation Zrotation
	JOINT mixamorig:Spine
	{
		OFFSET -0.000005 10.181595 0.131519
		CHANNELS 6 Xposition Yposition Zposition Xrotation Yrotation Zrotation
		JOINT mixamorig:Spine1
		{
			OFFSET -0.000000 9.893959 -1.470707
			CHANNELS 6 Xposition Yposition Zposition Xrotation Yrotation Zrotation
			JOINT mixamorig:Spine2
			{
				OFFSET -0.000000 9.220757 -1.370641
				CHANNELS 6 Xposition Yposition Zposition Xrotation Yrotation Zrotation
				JOINT mixamorig:Neck
				{
					OFFSET 0.000001 16.740417 -2.049036
					CHANNELS 6 Xposition Yposition Zposition Xrotation Yrotation Zrotation
					JOINT mixamorig:Head
					{
						OFFSET 0.000000 9.617874 1.685006
						CHANNELS 6 Xposition Yposition Zposition Xrotation Yrotation Zrotation
						JOINT mixamorig:HeadTop_End
						{
							OFFSET 0.000002 22.037354 7.501101
							CHANNELS 6 Xposition Yposition Zposition Xrotation Yrotation Zrotation
							End Site
							{
								OFFSET 0.000168 2310.654297 -282.823242
							}
						}
					}
				}
				JOINT mixamorig:RightShoulder
				{
					OFFSET -4.569970 11.014908 -2.160885
					CHANNELS 6 Xposition Yposition Zposition Xrotation Yrotation Zrotation
					JOINT mixamorig:RightArm
					{
						OFFSET -10.592851 -0.524811 -2.232101
						CHANNELS 6 Xposition Yposition Zposition Xrotation Yrotation Zrotation
						JOINT mixamorig:RightForeArm
						{
							OFFSET -27.841511 0.000031 -0.000004
							CHANNELS 6 Xposition Yposition Zposition Xrotation Yrotation Zrotation
							JOINT mixamorig:RightHand
							{
								OFFSET -28.328831 -0.000015 0.000015
								CHANNELS 6 Xposition Yposition Zposition Xrotation Yrotation Zrotation
								JOINT mixamorig:RightHandThumb1
								{
									OFFSET -2.464806 -1.573990 2.681852
									CHANNELS 6 Xposition Yposition Zposition Xrotation Yrotation Zrotation
									JOINT mixamorig:RightHandThumb2
									{
										OFFSET -3.215179 -1.872803 1.924282
										CHANNELS 6 Xposition Yposition Zposition Xrotation Yrotation Zrotation
										JOINT mixamorig:RightHandThumb3
										{
											OFFSET -2.654831 -1.527969 1.512609
											CHANNELS 6 Xposition Yposition Zposition Xrotation Yrotation Zrotation
											JOINT mixamorig:RightHandThumb4
											{
												OFFSET -2.018814 -1.152008 1.108052
												CHANNELS 6 Xposition Yposition Zposition Xrotation Yrotation Zrotation
												End Site
												{
													OFFSET -188.809540 -114.533607 132.431396
												}
											}
										}
									}
								}
								JOINT mixamorig:RightHandIndex1
								{
									OFFSET -9.108284 -0.517868 2.259835
									CHANNELS 6 Xposition Yposition Zposition Xrotation Yrotation Zrotation
									JOINT mixamorig:RightHandIndex2
									{
										OFFSET -3.699989 0.000000 0.001215
										CHANNELS 6 Xposition Yposition Zposition Xrotation Yrotation Zrotation
										JOINT mixamorig:RightHandIndex3
										{
											OFFSET -2.850006 0.000031 -0.000522
											CHANNELS 6 Xposition Yposition Zposition Xrotation Yrotation Zrotation
											JOINT mixamorig:RightHandIndex4
											{
												OFFSET -2.772186 -0.000015 -0.000020
												CHANNELS 6 Xposition Yposition Zposition Xrotation Yrotation Zrotation
												End Site
												{
													OFFSET -277.218445 0.000000 -0.050231
												}
											}
										}
									}
								}
								JOINT mixamorig:RightHandMiddle1
								{
									OFFSET -9.532516 -0.000031 -0.000023
									CHANNELS 6 Xposition Yposition Zposition Xrotation Yrotation Zrotation
									JOINT mixamorig:RightHandMiddle2
									{
										OFFSET -3.700005 -0.000015 0.003713
										CHANNELS 6 Xposition Yposition Zposition Xrotation Yrotation Zrotation
										JOINT mixamorig:RightHandMiddle3
										{
											OFFSET -2.949974 0.000015 -0.002054
											CHANNELS 6 Xposition Yposition Zposition Xrotation Yrotation Zrotation
											JOINT mixamorig:RightHandMiddle4
											{
												OFFSET -2.946640 0.000000 -0.000156
												CHANNELS 6 Xposition Yposition Zposition Xrotation Yrotation Zrotation
												End Site
												{
													OFFSET -294.664337 0.000000 -0.113670
												}
											}
										}
									}
								}
								JOINT mixamorig:RightHandRing1
								{
									OFFSET -9.103600 -0.043076 -1.865134
									CHANNELS 6 Xposition Yposition Zposition Xrotation Yrotation Zrotation
									JOINT mixamorig:RightHandRing2
									{
										OFFSET -3.379288 0.000000 -0.001055
										CHANNELS 6 Xposition Yposition Zposition Xrotation Yrotation Zrotation
										JOINT mixamorig:RightHandRing3
										{
											OFFSET -2.889687 -0.000015 0.000379
											CHANNELS 6 Xposition Yposition Zposition Xrotation Yrotation Zrotation
											JOINT mixamorig:RightHandRing4
											{
												OFFSET -2.638809 -0.000015 0.000941
												CHANNELS 6 Xposition Yposition Zposition Xrotation Yrotation Zrotation
												End Site
												{
													OFFSET -263.880371 0.000000 0.516020
												}
											}
										}
									}
								}
								JOINT mixamorig:RightHandPinky1
								{
									OFFSET -8.076683 -0.486710 -3.806280
									CHANNELS 6 Xposition Yposition Zposition Xrotation Yrotation Zrotation
									JOINT mixamorig:RightHandPinky2
									{
										OFFSET -3.600014 -0.000015 -0.003747
										CHANNELS 6 Xposition Yposition Zposition Xrotation Yrotation Zrotation
										JOINT mixamorig:RightHandPinky3
										{
											OFFSET -2.099983 0.000000 -0.005739
											CHANNELS 6 Xposition Yposition Zposition Xrotation Yrotation Zrotation
											JOINT mixamorig:RightHandPinky4
											{
												OFFSET -2.115768 -0.000031 -0.003680
												CHANNELS 6 Xposition Yposition Zposition Xrotation Yrotation Zrotation
												End Site
												{
													OFFSET -211.577087 0.000000 -0.350686
												}
											}
										}
									}
								}
							}
						}
					}
				}
				JOINT mixamorig:LeftShoulder
				{
					OFFSET 4.570447 11.014725 -2.160855
					CHANNELS 6 Xposition Yposition Zposition Xrotation Yrotation Zrotation
					JOINT mixamorig:LeftArm
					{
						OFFSET 10.592371 -0.524597 -2.232119
						CHANNELS 6 Xposition Yposition Zposition Xrotation Yrotation Zrotation
						JOINT mixamorig:LeftForeArm
						{
							OFFSET 27.841532 -0.000031 0.000026
							CHANNELS 6 Xposition Yposition Zposition Xrotation Yrotation Zrotation
							JOINT mixamorig:LeftHand
							{
								OFFSET 28.328846 -0.000061 0.000022
								CHANNELS 6 Xposition Yposition Zposition Xrotation Yrotation Zrotation
								JOINT mixamorig:LeftHandThumb1
								{
									OFFSET 2.466141 -1.576172 2.681732
									CHANNELS 6 Xposition Yposition Zposition Xrotation Yrotation Zrotation
									JOINT mixamorig:LeftHandThumb2
									{
										OFFSET 3.217812 -1.872070 1.916482
										CHANNELS 6 Xposition Yposition Zposition Xrotation Yrotation Zrotation
										JOINT mixamorig:LeftHandThumb3
										{
											OFFSET 2.656029 -1.528778 1.514513
											CHANNELS 6 Xposition Yposition Zposition Xrotation Yrotation Zrotation
											JOINT mixamorig:LeftHandThumb4
											{
												OFFSET 2.020889 -1.154053 1.115139
												CHANNELS 6 Xposition Yposition Zposition Xrotation Yrotation Zrotation
												End Site
												{
													OFFSET 190.885437 -115.081749 130.048782
												}
											}
										}
									}
								}
								JOINT mixamorig:LeftHandIndex1
								{
									OFFSET 9.109314 -0.518021 2.259871
									CHANNELS 6 Xposition Yposition Zposition Xrotation Yrotation Zrotation
									JOINT mixamorig:LeftHandIndex2
									{
										OFFSET 3.699989 0.000000 -0.000322
										CHANNELS 6 Xposition Yposition Zposition Xrotation Yrotation Zrotation
										JOINT mixamorig:LeftHandIndex3
										{
											OFFSET 2.850006 0.000000 0.000352
											CHANNELS 6 Xposition Yposition Zposition Xrotation Yrotation Zrotation
											JOINT mixamorig:LeftHandIndex4
											{
												OFFSET 2.774864 -0.000031 -0.000027
												CHANNELS 6 Xposition Yposition Zposition Xrotation Yrotation Zrotation
												End Site
												{
													OFFSET 277.486267 0.000000 -0.009857
												}
											}
										}
									}
								}
								JOINT mixamorig:LeftHandMiddle1
								{
									OFFSET 9.533394 0.000061 0.000044
									CHANNELS 6 Xposition Yposition Zposition Xrotation Yrotation Zrotation
									JOINT mixamorig:LeftHandMiddle2
									{
										OFFSET 3.699989 -0.000015 -0.000231
										CHANNELS 6 Xposition Yposition Zposition Xrotation Yrotation Zrotation
										JOINT mixamorig:LeftHandMiddle3
										{
											OFFSET 2.949997 -0.000015 -0.000059
											CHANNELS 6 Xposition Yposition Zposition Xrotation Yrotation Zrotation
											JOINT mixamorig:LeftHandMiddle4
											{
												OFFSET 2.952896 0.000031 0.000063
												CHANNELS 6 Xposition Yposition Zposition Xrotation Yrotation Zrotation
												End Site
												{
													OFFSET 295.289337 0.000000 0.022810
												}
											}
										}
									}
								}
								JOINT mixamorig:LeftHandRing1
								{
									OFFSET 9.104523 -0.042999 -1.865074
									CHANNELS 6 Xposition Yposition Zposition Xrotation Yrotation Zrotation
									JOINT mixamorig:LeftHandRing2
									{
										OFFSET 3.150009 -0.000031 0.000043
										CHANNELS 6 Xposition Yposition Zposition Xrotation Yrotation Zrotation
										JOINT mixamorig:LeftHandRing3
										{
											OFFSET 2.949982 -0.000015 0.000040
											CHANNELS 6 Xposition Yposition Zposition Xrotation Yrotation Zrotation
											JOINT mixamorig:LeftHandRing4
											{
												OFFSET 2.644348 0.000000 0.000057
												CHANNELS 6 Xposition Yposition Zposition Xrotation Yrotation Zrotation
												End Site
												{
													OFFSET 264.434631 0.000000 0.012105
												}
											}
										}
									}
								}
								JOINT mixamorig:LeftHandPinky1
								{
									OFFSET 8.077789 -0.486847 -3.806259
									CHANNELS 6 Xposition Yposition Zposition Xrotation Yrotation Zrotation
									JOINT mixamorig:LeftHandPinky2
									{
										OFFSET 3.599953 0.000031 0.014727
										CHANNELS 6 Xposition Yposition Zposition Xrotation Yrotation Zrotation
										JOINT mixamorig:LeftHandPinky3
										{
											OFFSET 2.100021 0.000015 0.007705
											CHANNELS 6 Xposition Yposition Zposition Xrotation Yrotation Zrotation
											JOINT mixamorig:LeftHandPinky4
											{
												OFFSET 2.125504 0.000031 0.007517
												CHANNELS 6 Xposition Yposition Zposition Xrotation Yrotation Zrotation
												End Site
												{
													OFFSET 212.550781 0.000000 0.625752
												}
											}
										}
									}
								}
							}
						}
					}
				}
			}
		}
	}
	JOINT mixamorig:RightUpLeg
	{
		OFFSET -8.207787 -6.751648 -1.599560
		CHANNELS 6 Xposition Yposition Zposition Xrotation Yrotation Zrotation
		JOINT mixamorig:RightLeg
		{
			OFFSET -0.000002 -44.370117 0.345942
			CHANNELS 6 Xposition Yposition Zposition Xrotation Yrotation Zrotation
			JOINT mixamorig:RightFoot
			{
				OFFSET 0.000003 -44.423679 -3.043532
				CHANNELS 6 Xposition Yposition Zposition Xrotation Yrotation Zrotation
				JOINT mixamorig:RightToeBase
				{
					OFFSET -0.000002 -8.728671 10.710558
					CHANNELS 6 Xposition Yposition Zposition Xrotation Yrotation Zrotation
					JOINT mixamorig:RightToe_End
					{
						OFFSET -0.000001 -0.000679 9.278119
						CHANNELS 6 Xposition Yposition Zposition Xrotation Yrotation Zrotation
						End Site
						{
							OFFSET 0.000000 -0.067690 927.812134
						}
					}
				}
			}
		}
	}
	JOINT mixamorig:LeftUpLeg
	{
		OFFSET 8.207793 -6.751686 -1.599556
		CHANNELS 6 Xposition Yposition Zposition Xrotation Yrotation Zrotation
		JOINT mixamorig:LeftLeg
		{
			OFFSET -0.000004 -44.370014 0.346954
			CHANNELS 6 Xposition Yposition Zposition Xrotation Yrotation Zrotation
			JOINT mixamorig:LeftFoot
			{
				OFFSET -0.000001 -44.423672 -3.044401
				CHANNELS 6 Xposition Yposition Zposition Xrotation Yrotation Zrotation
				JOINT mixamorig:LeftToeBase
				{
					OFFSET -0.000002 -8.728669 10.710558
					CHANNELS 6 Xposition Yposition Zposition Xrotation Yrotation Zrotation
					JOINT mixamorig:LeftToe_End
					{
						OFFSET -0.000003 -0.000679 9.278133
						CHANNELS 6 Xposition Yposition Zposition Xrotation Yrotation Zrotation
						End Site
						{
							OFFSET 0.000000 -0.068021 927.813477
						}
					}
				}
			}
		}
	}
}
MOTION
Frames: 3
Frame Time: 0.033333
0.000006 104.270477 1.554256 0.000010 0.000003 -0.000113 -0.000005 10.181587 0.131522 0.000001 -0.000003 0.000084 -0.000000 9.893967 -1.470711 0.000001 0.000000 -0.000000 -0.000000 9.220802 -1.370642 0.000000 -0.000000 -0.000000 0.000001 16.740433 -2.049030 0.000000 -0.000000 -0.000000 0.000000 9.617859 1.685014 0.000000 0.000000 0.000000 0.000002 22.037384 7.501101 0.000000 -0.000000 0.000000 -4.569968 11.014880 -2.160881 0.000008 0.000001 -0.000038 -10.592848 -0.524811 -2.231827 76.146719 44.495612 -35.535282 -27.841515 -0.000008 0.000537 -50.434732 104.333455 62.464983 -28.328846 0.000018 0.000021 -0.000322 -0.000046 0.000008 -2.464415 -1.573803 2.682351 -44.446472 -161.462995 -1.538440 -3.215274 -1.872571 1.924633 153.139917 32.217978 9.066678 -2.654944 -1.527877 1.513075 148.313350 26.829716 -35.546845 -2.018838 -1.151998 1.108071 -0.000002 -0.000003 0.000000 -9.108363 -0.517539 2.260134 101.234147 15.805983 -19.251998 -3.700068 0.000324 0.001508 96.053749 13.826533 -15.326651 -2.850100 0.000360 -0.000258 94.582376 11.866282 -12.846432 -2.772163 -0.000016 -0.000016 0.000000 -0.000001 -0.000000 -9.532583 0.000281 0.000232 93.577239 13.395947 -14.398256 -3.700067 0.000324 0.003973 93.054449 12.076002 -12.632554 -2.950054 0.000343 -0.001834 92.205764 11.894935 -12.350975 -2.946629 0.000015 -0.000152 0.000002 -0.000001 -0.000001 -9.103677 -0.042741 -1.864875 90.238431 14.888282 -14.905793 -3.379335 0.000302 -0.000810 91.868169 9.446216 -9.775730 -2.889760 0.000349 0.000628 94.503877 7.467583 -8.126580 -2.638802 0.000012 0.000939 -0.000004 -0.000000 0.000000 -8.076735 -0.486383 -3.806048 82.383406 15.490709 -13.445824 -3.600037 0.000283 -0.003531 85.033376 6.918439 -6.025243 -2.100016 0.000317 -0.005517 86.302766 4.360004 -3.885681 -2.115763 -0.000066 -0.003680 0.000001 -0.000000 -0.000002 4.570446 11.014691 -2.160851 -0.000018 0.000010 -0.000021 10.592443 -0.524470 -2.232391 73.077895 -27.289806 20.395281 27.841835 0.000038 -0.000199 104.393199 -73.320435 87.627577 28.328833 -0.000032 0.000022 0.000020 -0.000089 -0.000001 2.466076 -1.576165 2.681901 -25.431578 156.479128 -37.356531 3.217825 -1.871772 1.916362 156.738307 -29.548597 9.149138 2.656093 -1.528613 1.514452 142.266611 -27.629447 38.938799 2.020883 -1.154063 1.115146 -0.000002 0.000006 0.000006 9.109368 -0.517859 2.259743 83.198568 -16.659405 14.801449 3.700055 0.000123 -0.000465 78.550584 -17.517678 14.377041 2.850045 0.000165 0.000225 74.659022 -14.354269 10.969664 2.774879 -0.000047 -0.000026 0.000002 0.000001 0.000000 9.533450 0.000194 -0.000082 80.451903 -15.226845 12.893578 3.700040 0.000150 -0.000360 81.389299 -16.461712 14.179539 2.950057 0.000138 -0.000186 79.206589 -19.008744 15.775357 2.952864 -0.000015 0.000062 -0.000000 0.000000 0.000001 9.104574 -0.042873 -1.865220 76.571728 -14.571618 11.527040 3.150054 0.000161 -0.000093 79.797851 -15.323635 12.836623 2.950032 0.000131 -0.000061 77.661252 -16.860826 13.607311 2.644320 0.000045 0.000056 0.000000 -0.000000 -0.000001 8.077835 -0.486753 -3.806415 68.284652 -16.493001 11.634517 3.599989 0.000129 0.014574 65.848399 -13.933038 9.388548 2.100035 0.000139 0.007550 67.123991 -13.242698 9.139168 2.125498 0.000001 0.007512 -0.000001 0.000001 0.000002 -8.207786 -6.751667 -1.599560 -0.077001 -0.000003 0.000080 -0.000002 -44.370110 0.345938 0.153719 -0.000000 -0.000000 0.000000 -44.423679 -3.043532 -0.076700 0.000000 -0.000002 -0.000006 -8.728667 10.710559 -0.000009 -0.000000 -0.000000 -0.000001 -0.000679 9.278123 0.000000 -0.000000 -0.000000 8.207792 -6.751710 -1.599556 -0.074518 -0.000003 0.000081 -0.000002 -44.370014 0.346960 0.148822 0.000002 0.000000 -0.000001 -44.423664 -3.044403 -0.074314 0.000000 -0.000002 -0.000004 -8.728671 10.710558 0.000007 -0.000000 -0.000000 0.000000 -0.000680 9.278137 -0.000000 0.000000 -0.000001 
0.000006 104.270477 1.554256 0.000010 0.000003 -0.000113 -0.000005 10.181587 0.131522 0.000001 -0.000003 0.000084 -0.000000 9.893967 -1.470711 0.000001 0.000000 -0.000000 -0.000000 9.220802 -1.370642 0.000000 -0.000000 -0.000000 0.000001 16.740433 -2.049030 0.000000 -0.000000 -0.000000 0.000000 9.617859 1.685014 0.000000 0.000000 0.000000 0.000002 22.037384 7.501101 0.000000 -0.000000 0.000000 -4.569968 11.014880 -2.160881 0.000008 0.000001 -0.000038 -10.592863 -0.524792 -2.231872 75.602278 36.671699 -28.834876 -27.841526 -0.000002 0.000553 -47.070074 103.484292 57.825754 -28.328825 0.000008 0.000029 -0.000326 -0.000043 0.000005 -2.464413 -1.573802 2.682324 -46.365718 -160.398113 -6.434040 -3.215282 -1.872561 1.924646 149.317511 31.533833 8.702318 -2.654969 -1.527846 1.513047 144.349559 28.454220 -23.060998 -2.018842 -1.152004 1.108058 -0.000001 -0.000004 0.000005 -9.108377 -0.517538 2.260130 102.141108 13.989480 -17.329950 -3.700058 0.000314 0.001507 98.421564 12.230478 -14.129290 -2.850086 0.000369 -0.000255 96.834802 10.150479 -11.430661 -2.772159 0.000001 -0.000015 -0.000001 0.000001 0.000001 -9.532584 0.000288 0.000233 94.900622 12.645707 -13.915484 -3.700080 0.000330 0.003980 94.260558 11.386604 -12.158939 -2.950062 0.000324 -0.001784 94.926215 11.369193 -12.375947 -2.946625 0.000001 -0.000155 0.000001 -0.000003 0.000000 -9.103690 -0.042742 -1.864876 91.331329 14.782770 -15.081693 -3.379334 0.000317 -0.000818 92.942482 10.021372 -10.565124 -2.889750 0.000349 0.000664 98.597729 7.982934 -9.329042 -2.638803 -0.000000 0.000942 -0.000002 -0.000000 -0.000002 -8.076751 -0.486380 -3.806050 83.803470 16.243722 -14.459789 -3.600050 0.000274 -0.003538 85.030473 8.179568 -7.176420 -2.100010 0.000326 -0.005506 89.369815 4.870187 -4.602408 -2.115768 -0.000043 -0.003678 0.000002 -0.000000 -0.000000 4.570446 11.014691 -2.160851 -0.000018 0.000010 -0.000021 10.592433 -0.524468 -2.232388 72.695418 -23.843349 17.661846 27.841824 0.000045 -0.000177 108.174227 -75.833275 94.170024 28.328831 -0.000031 0.000021 0.000024 -0.000087 0.000001 2.466203 -1.576135 2.681862 -7.840605 161.395826 -72.725894 3.217855 -1.871788 1.916386 163.434296 -25.919202 25.173497 2.656116 -1.528702 1.514479 141.090029 -27.072566 54.568844 2.020890 -1.154057 1.115144 0.000000 0.000000 0.000006 9.109396 -0.517871 2.259738 83.792747 -19.088183 17.144014 3.700036 0.000141 -0.000472 80.190908 -13.693573 11.559612 2.850037 0.000188 0.000202 78.895590 -11.523022 9.490483 2.774880 -0.000016 -0.000027 -0.000002 0.000001 -0.000000 9.533472 0.000187 -0.000090 79.632144 -18.501895 15.457212 3.700035 0.000155 -0.000374 80.522131 -12.997185 11.018277 2.950056 0.000152 -0.000209 79.847281 -12.434699 10.420452 2.952873 -0.000015 0.000060 -0.000002 -0.000002 0.000000 9.104595 -0.042880 -1.865227 76.077222 -18.179913 14.271347 3.150051 0.000164 -0.000085 78.617875 -12.923781 10.597663 2.950018 0.000142 -0.000088 79.488929 -10.793224 8.984507 2.644325 0.000031 0.000057 0.000000 -0.000000 0.000000 8.077860 -0.486760 -3.806399 68.238528 -20.102071 14.120376 3.600011 0.000125 0.014585 67.622438 -16.499770 11.454803 2.100040 0.000148 0.007552 70.260817 -11.868021 8.709205 2.125504 -0.000001 0.007518 -0.000001 -0.000002 -0.000000 -8.207786 -6.751667 -1.599560 -0.077001 -0.000003 0.000080 -0.000002 -44.370110 0.345938 0.153719 -0.000000 -0.000000 0.000000 -44.423679 -3.043532 -0.076700 0.000000 -0.000002 -0.000006 -8.728667 10.710559 -0.000009 -0.000000 -0.000000 -0.000001 -0.000679 9.278123 0.000000 -0.000000 -0.000000 8.207792 -6.751710 -1.599556 -0.074518 -0.000003 0.000081 -0.000002 -44.370014 0.346960 0.148822 0.000002 0.000000 -0.000001 -44.423664 -3.044403 -0.074314 0.000000 -0.000002 -0.000004 -8.728671 10.710558 0.000007 -0.000000 -0.000000 0.000000 -0.000680 9.278137 -0.000000 0.000000 -0.000001 
0.000006 104.270477 1.554256 0.000010 0.000003 -0.000113 -0.000005 10.181587 0.131522 0.000001 -0.000003 0.000084 -0.000000 9.893967 -1.470711 0.000001 0.000000 -0.000000 -0.000000 9.220802 -1.370642 0.000000 -0.000000 -0.000000 0.000001 16.740433 -2.049030 0.000000 -0.000000 -0.000000 0.000000 9.617859 1.685014 0.000000 0.000000 0.000000 0.000002 22.037384 7.501101 0.000000 -0.000000 0.000000 -4.569968 11.014880 -2.160881 0.000008 0.000001 -0.000038 -10.592842 -0.524821 -2.231812 75.128516 48.741470 -38.417755 -27.841526 0.000013 0.000573 -42.881946 100.977974 50.929565 -28.328833 0.000010 0.000023 -0.000320 -0.000044 0.000009 -2.464423 -1.573921 2.682361 -29.950158 -149.514180 24.624777 -3.215279 -1.872568 1.924642 153.517627 31.920756 6.746013 -2.654968 -1.527865 1.513062 148.433944 28.109118 -23.065510 -2.018822 -1.152015 1.108063 -0.000001 -0.000000 0.000003 -9.108374 -0.517562 2.260161 108.414315 15.673324 -21.677905 -3.700043 0.000329 0.001528 106.077318 11.847474 -15.670846 -2.850063 0.000382 -0.000236 103.911814 8.045113 -10.269157 -2.772173 -0.000018 -0.000015 0.000001 0.000002 -0.000002 -9.532576 0.000287 0.000244 98.696691 11.768733 -13.846962 -3.700054 0.000350 0.003968 98.899678 7.948924 -9.179944 -2.950041 0.000350 -0.001794 97.043662 8.161936 -9.220425 -2.946640 0.000000 -0.000162 0.000001 -0.000004 0.000000 -9.103677 -0.042741 -1.864869 97.996412 12.741226 -14.587735 -3.379324 0.000338 -0.000781 97.857350 8.027636 -9.226266 -2.889733 0.000344 0.000646 98.815407 6.412280 -7.533308 -2.638810 -0.000015 0.000937 -0.000000 0.000004 0.000000 -8.076740 -0.486365 -3.806028 89.983412 13.774527 -13.624864 -3.600033 0.000282 -0.003531 88.506821 6.647322 -6.138984 -2.100016 0.000324 -0.005512 89.136844 4.176057 -3.902153 -2.115772 -0.000041 -0.003686 -0.000002 -0.000000 -0.000005 4.570446 11.014691 -2.160851 -0.000018 0.000010 -0.000021 10.592482 -0.524479 -2.232404 72.357624 -40.386605 30.109977 27.841822 0.000023 -0.000176 109.200976 -78.065347 97.527274 28.328863 -0.000028 0.000025 0.000026 -0.000090 -0.000000 2.466264 -1.575988 2.681809 13.088038 177.799195 -117.910935 3.217881 -1.871871 1.916418 164.710025 -20.536127 44.649039 2.656104 -1.528661 1.514493 141.004433 -26.913044 58.071163 2.020903 -1.154070 1.115149 0.000003 0.000002 0.000001 9.109392 -0.517883 2.259755 84.510381 -21.239184 19.322443 3.700051 0.000138 -0.000461 81.933966 -14.297512 12.444986 2.850038 0.000178 0.000202 80.891153 -11.006229 9.388933 2.774889 -0.000017 -0.000024 0.000002 0.000001 -0.000001 9.533464 0.000180 -0.000094 79.135856 -19.185107 15.892558 3.700047 0.000158 -0.000382 81.669269 -11.096557 9.595302 2.950057 0.000149 -0.000209 80.675018 -10.975363 9.330554 2.952874 -0.000015 0.000062 -0.000000 -0.000001 -0.000000 9.104585 -0.042878 -1.865233 77.725121 -18.820322 15.215250 3.150037 0.000178 -0.000100 80.728130 -12.488270 10.628077 2.950018 0.000166 -0.000111 80.192609 -10.248035 8.636672 2.644325 0.000013 0.000058 0.000001 -0.000000 -0.000000 8.077850 -0.486755 -3.806379 68.426727 -20.542040 14.475903 3.600001 0.000125 0.014576 68.575939 -17.093457 12.072112 2.100020 0.000154 0.007540 70.615673 -12.877786 9.490107 2.125510 -0.000000 0.007513 -0.000000 -0.000001 0.000000 -8.207786 -6.751667 -1.599560 -0.077001 -0.000003 0.000080 -0.000002 -44.370110 0.345938 0.153719 -0.000000 -0.000000 0.000000 -44.423679 -3.043532 -0.076700 0.000000 -0.000002 -0.000006 -8.728667 10.710559 -0.000009 -0.000000 -0.000000 -0.000001 -0.000679 9.278123 0.000000 -0.000000 -0.000000 8.207792 -6.751710 -1.599556 -0.074518 -0.000003 0.000081 -0.000002 -44.370014 0.346960 0.148822 0.000002 0.000000 -0.000001 -44.423664 -3.044403 -0.074314 0.000000 -0.000002 -0.000004 -8.728671 10.710558 0.000007 -0.000000 -0.000000 0.000000 -0.000680 9.278137 -0.000000 0.000000 -0.000001 
